<?xml version="1.0" encoding="utf-8"?>
<!-- Generator: Adobe Illustrator 16.0.0, SVG Export Plug-In . SVG Version: 6.00 Build 0)  -->
<!DOCTYPE svg PUBLIC "-//W3C//DTD SVG 1.1//EN" "http://www.w3.org/Graphics/SVG/1.1/DTD/svg11.dtd">
<svg version="1.1" id="Layer_1" xmlns="http://www.w3.org/2000/svg" xmlns:xlink="http://www.w3.org/1999/xlink" x="0px" y="0px"
	 width="200px" height="200px" viewBox="0 0 200 200" enable-background="new 0 0 200 200" xml:space="preserve">
<g>
	<g>
		<defs>
			<rect id="SVGID_1_" x="34.795" y="34.886" width="130.41" height="130.43"/>
		</defs>
		<clipPath id="SVGID_2_">
			<use xlink:href="#SVGID_1_"  overflow="visible"/>
		</clipPath>
		<path clip-path="url(#SVGID_2_)" fill-rule="evenodd" clip-rule="evenodd" fill="#D1232A" d="M100,141.526
			c-22.83,0-41.416-18.586-41.416-41.416c0-22.829,18.586-41.466,41.416-41.466s41.416,18.637,41.416,41.466
			C141.416,122.94,122.83,141.526,100,141.526L100,141.526z"/>
		<path clip-path="url(#SVGID_2_)" fill-rule="evenodd" clip-rule="evenodd" fill="#FFC10E" d="M100,161.63
			c-33.84,0-61.518-27.629-61.518-61.519S66.16,38.543,100,38.543c33.89,0,61.517,27.677,61.517,61.567S133.891,161.63,100,161.63
			L100,161.63z M100,34.855c-35.86,0-65.205,29.294-65.205,65.255c0,35.911,29.345,65.205,65.205,65.205
			c35.91,0,65.205-29.294,65.205-65.205C165.205,64.15,135.91,34.855,100,34.855L100,34.855z"/>
	</g>
	<path fill-rule="evenodd" clip-rule="evenodd" fill="#034EA1" d="M100,141.526c-22.83,0-41.416-18.586-41.416-41.416
		c0-22.829,18.586-41.466,41.416-41.466s41.416,18.637,41.416,41.466C141.416,122.94,122.83,141.526,100,141.526L100,141.526z
		 M100,38.543c-33.84,0-61.518,27.677-61.518,61.567S66.16,161.63,100,161.63c33.89,0,61.517-27.629,61.517-61.519
		S133.891,38.543,100,38.543L100,38.543z"/>
	<path fill-rule="evenodd" clip-rule="evenodd" fill="#FFFFFF" d="M143.79,91.626h4.596l0.202,1.01l0.304,2.424l0.2,2.526
		l0.052,2.524l-0.052,2.526l-0.2,2.475l-0.304,2.476l-0.252,1.16h-4.596l0.352-1.868l0.303-2.223l0.153-2.272l0.051-2.273
		l-0.051-2.323l-0.153-2.273l-0.303-2.222L143.79,91.626L143.79,91.626z M51.665,91.626h4.596l-0.303,1.667l-0.303,2.222
		l-0.151,2.273l-0.101,2.323l0.101,2.273l0.151,2.272l0.303,2.223l0.303,1.868h-4.596l-0.202-1.16l-0.303-2.476l-0.202-2.475
		l-0.051-2.526l0.051-2.524l0.202-2.526l0.303-2.424L51.665,91.626L51.665,91.626L51.665,91.626z M42.472,108.747
		c-0.404-2.827-0.606-5.706-0.606-8.636c0-2.879,0.202-5.708,0.606-8.485h4.596l-0.051,0.303l-0.354,2.677l-0.202,2.728l-0.1,2.778
		l0.1,2.728l0.202,2.728l0.354,2.677l0.051,0.504H42.472L42.472,108.747L42.472,108.747z M157.577,91.626
		c0.404,2.777,0.607,5.606,0.607,8.485c0,2.93-0.203,5.809-0.657,8.636h-4.596l0.102-0.504l0.353-2.677l0.203-2.728l0.05-2.728
		l-0.05-2.778l-0.203-2.728l-0.353-2.677l-0.052-0.303H157.577L157.577,91.626L157.577,91.626z"/>
	<path fill-rule="evenodd" clip-rule="evenodd" fill="#FFFFFF" d="M70.049,138.193c0.202-0.303,0.202-0.656,0.101-1.011
		c-0.101-0.354-0.303-0.707-0.555-0.959c-0.051-0.102-0.102-0.151-0.152-0.202c-0.051-0.051-0.101-0.102-0.152-0.151
		c-0.202-0.15-0.404-0.304-0.606-0.404c-0.252-0.051-0.404-0.051-0.606,0.052l0,0c0,0.049-0.05,0.049-0.05,0.049l-0.051,0.051
		c0,0-0.051,0-0.101,0.051c-0.252,0.252-0.202,0.656,0.05,1.212c0.252,0.505,0.606,1.061,1.01,1.566
		c0.051,0.05,0.051,0.101,0.051,0.101c0.051,0.051,0.051,0.051,0.051,0.051c1.06,1.313,1.717,2.525,1.97,3.637
		c0.303,1.162,0,2.222-0.809,3.281l-0.101,0.152c-1.01,1.162-2.324,1.616-3.838,1.414c-1.516-0.252-2.879-0.858-4.091-1.92
		c-1.262-1.11-2.171-2.373-2.727-3.838c-0.152-0.402-0.253-0.858-0.253-1.262v-0.151c0-0.96,0.404-1.869,1.162-2.729l3.384,2.88
		c-0.252,0.504-0.303,0.959-0.202,1.312c0.152,0.404,0.303,0.758,0.606,1.061c0.05,0.051,0.101,0.102,0.151,0.152
		c0.051,0.051,0.101,0.151,0.152,0.151c0.354,0.303,0.656,0.454,1.01,0.454c0.354,0.051,0.606-0.051,0.808-0.201
		c0-0.051,0-0.051,0-0.051l0,0c0.051-0.051,0.051-0.102,0.101-0.102c0-0.051,0.051-0.101,0.051-0.101
		c0.051-0.151,0.101-0.304,0.051-0.505c0-0.202-0.102-0.404-0.203-0.606c-0.101-0.102-0.151-0.202-0.202-0.304
		c-0.102-0.101-0.152-0.201-0.202-0.303c-0.101-0.1-0.152-0.151-0.202-0.253c-0.051-0.101-0.152-0.151-0.202-0.251
		c-0.858-1.213-1.515-2.476-2.071-3.738c-0.505-1.262-0.303-2.475,0.707-3.586c0.051-0.101,0.101-0.151,0.152-0.202
		c0.101-0.051,0.151-0.102,0.202-0.151c0.05-0.051,0.101-0.102,0.151-0.151c0.05-0.051,0.101-0.051,0.151-0.101
		c0.758-0.657,1.718-1.011,2.93-1.011c1.162,0.05,2.374,0.605,3.688,1.667l0.404,0.354c0.05,0.102,0.101,0.151,0.202,0.202
		c0.051,0.051,0.151,0.151,0.202,0.201c0.909,0.91,1.616,1.919,2.02,3.132c0.455,1.213,0.202,2.525-0.758,3.99L70.049,138.193
		L70.049,138.193L70.049,138.193z"/>
	<path fill-rule="evenodd" clip-rule="evenodd" fill="#FFFFFF" d="M86.414,147.437c0,0.05,0,0.101,0,0.151l-0.05,0.05
		c0,0.051,0,0.051,0,0.051c0,0.051-0.051,0.051-0.051,0.051c-0.101,0.303-0.354,0.556-0.656,0.707c-0.303,0.152-0.657,0.202-1.061,0
		l-0.152-0.051l-2.02-0.758l1.06-2.727l0.96,0.353l1.061,0.404c0.403,0.202,0.707,0.455,0.808,0.758
		C86.464,146.779,86.515,147.133,86.414,147.437L86.414,147.437z M90.505,145.668c-0.556-1.312-1.768-2.322-3.536-3.029l-2.525-0.96
		l-4.242-1.616l-4.951,13.183l4.395,1.717l1.515-3.989l2.424,0.958c0.303,0.102,0.606,0.202,0.859,0.253
		c1.464,0.404,2.677,0.354,3.738-0.151c1.262-0.606,2.071-1.464,2.525-2.576c0,0,0,0,0-0.05c0,0,0-0.051,0.05-0.051
		C91.161,148.194,91.061,146.981,90.505,145.668L90.505,145.668z"/>
	<polygon fill-rule="evenodd" clip-rule="evenodd" fill="#FFFFFF" points="100.202,144.456 100.808,155.164 107.273,154.861 
		107.425,158.193 96.363,158.801 95.606,144.709 100.202,144.456 100.202,144.456 	"/>
	<polygon fill-rule="evenodd" clip-rule="evenodd" fill="#FFFFFF" points="116.163,141.375 121.012,154.659 116.517,156.274 
		111.667,143.042 116.163,141.375 116.163,141.375 	"/>
	<polygon fill-rule="evenodd" clip-rule="evenodd" fill="#FFFFFF" points="131.365,131.981 133.688,135.011 130.456,137.588 
		136.82,145.668 133.032,148.648 126.667,140.518 123.435,143.042 121.062,140.062 131.365,131.981 	"/>
	<path fill-rule="evenodd" clip-rule="evenodd" fill="#FFFFFF" d="M73.383,59.25l-0.505,0.304l-1.312-4.646l1.818,1.616l1.818,1.616
		L73.383,59.25L73.383,59.25z M73.383,51.321l-2.222-1.768l-3.535,2.222l-0.658,0.404l0.658,2.879l2.524,11.768l3.233-2.021
		l0.758-0.455l-0.505-1.869l3.839-2.424l1.363,1.313l4.041-2.525L73.383,51.321L73.383,51.321z"/>
	<path fill-rule="evenodd" clip-rule="evenodd" fill="#FFFFFF" d="M110.404,49.907c-0.253,1.465-0.758,2.424-1.516,2.878
		c-0.252,0.101-0.556,0.202-0.807,0.303c-0.606,0.151-1.212,0.151-1.921,0.05c-0.05-0.05-0.101-0.05-0.151-0.05
		c-0.05,0-0.1,0-0.1-0.05c-0.051,0-0.102,0-0.151,0c-0.052,0-0.102-0.051-0.102-0.051l1.263-7.323l0.707,0.152
		c0.15,0.05,0.302,0.05,0.455,0.101c0.757,0.202,1.413,0.556,1.868,1.01C110.506,47.482,110.657,48.493,110.404,49.907
		L110.404,49.907z M114.344,46.22c-0.758-1.112-1.666-1.97-2.677-2.525c-0.505-0.303-1.061-0.556-1.565-0.707
		c-0.506-0.202-0.96-0.303-1.415-0.404l-0.604-0.101l-5.153-0.909l-2.423,13.89l6.06,1.11c0.506,0.101,1.012,0.152,1.517,0.152
		c1.514,0.101,2.828-0.202,3.989-0.809c1.565-0.808,2.525-2.475,2.979-4.949l0.051-0.404
		C115.354,48.796,115.102,47.381,114.344,46.22L114.344,46.22z"/>
	<path fill-rule="evenodd" clip-rule="evenodd" fill="#FFFFFF" d="M133.941,52.987l-1.868-1.161l-4.698,7.576
		c-0.354,0.556-0.808,0.859-1.313,0.96c-0.556,0.101-1.062,0.05-1.465-0.152c-0.051,0-0.051,0-0.101-0.049
		c-0.052,0-0.052,0-0.102-0.051c0,0,0,0-0.049,0c0,0,0,0,0-0.05c-0.457-0.252-0.758-0.707-0.911-1.263
		c-0.15-0.556-0.049-1.112,0.303-1.717l4.697-7.525l-3.889-2.424l-4.596,7.273c-1.062,1.717-1.364,3.282-0.858,4.748
		c0.454,1.464,1.616,2.727,3.435,3.889c1.819,1.161,3.535,1.667,5.101,1.465c1.565-0.152,2.829-1.01,3.789-2.626l2.525-3.991
		l2.222-3.535L133.941,52.987L133.941,52.987z"/>
	<polygon fill-rule="evenodd" clip-rule="evenodd" fill="#FFFFFF" points="148.234,67.787 142.527,67.18 145.962,64.655 
		143.185,60.816 133.941,67.534 131.719,69.1 133.941,72.13 134.546,72.989 138.234,70.261 139.546,70.464 137.071,76.474 
		140.407,81.07 144.142,71.322 151.466,72.281 148.234,67.787 	"/>
	<path fill-rule="evenodd" clip-rule="evenodd" fill="#FFFFFF" d="M93.737,42.179l1.617,9.243c0.253,1.415,0.151,2.525-0.354,3.333
		c-0.505,0.808-1.111,1.464-1.818,1.869c-0.455,0.252-0.859,0.455-1.313,0.606c-0.404,0.101-0.758,0.202-1.061,0.253
		c-1.718,0.303-3.182,0.101-4.395-0.657c-1.161-0.758-1.919-2.02-2.273-3.89c0-0.05,0-0.151,0-0.252
		c-0.05-0.101-0.05-0.201-0.05-0.303c0-0.1,0-0.151-0.05-0.252c0-0.101,0-0.202,0-0.303l4.191-0.757
		c0.152,0.959,0.404,1.667,0.606,2.222c0.252,0.505,0.606,0.758,1.061,0.657c0.455-0.051,0.708-0.253,0.758-0.606
		c0.1-0.354,0.1-0.707,0-1.06l-1.617-9.293L93.737,42.179L93.737,42.179z"/>
	<polygon fill-rule="evenodd" clip-rule="evenodd" fill="#FFFFFF" points="67.625,68.746 56.817,60.917 53.988,64.756 
		57.877,67.584 55.402,70.917 51.564,68.14 48.736,71.979 60.15,80.262 62.978,76.424 58.635,73.242 61.059,69.908 65.402,73.04 
		67.625,70.06 68.231,69.201 67.625,68.746 	"/>
	<path fill-rule="evenodd" clip-rule="evenodd" fill="#FFFFFF" d="M125.304,91.677h15.247c-1.297-6.249-4.007-11.988-7.778-16.87
		h-7.469V91.677L125.304,91.677z M108.435,125.364v15.297c6.252-1.299,11.992-4.015,16.869-7.792v-7.505H108.435L108.435,125.364z
		 M91.565,108.545v16.819h16.87v-16.819H91.565L91.565,108.545z M125.304,125.364h7.494c3.757-4.867,6.458-10.589,7.753-16.819
		h-15.247V125.364L125.304,125.364z M74.747,125.364v7.544c4.867,3.756,10.589,6.458,16.818,7.753v-15.297H74.747L74.747,125.364z
		 M91.565,91.677H74.747v16.868h16.818V91.677L91.565,91.677z M108.435,108.545h16.869V91.677h-16.869V108.545L108.435,108.545z
		 M125.304,74.807v-7.486c-4.877-3.785-10.617-6.505-16.869-7.808v15.294H125.304L125.304,74.807z M91.565,74.807V59.513
		c-6.229,1.298-11.951,4.005-16.818,7.77v7.525H91.565L91.565,74.807z M74.747,74.807h-7.52c-3.771,4.882-6.48,10.621-7.778,16.87
		h15.298V74.807L74.747,74.807z M74.747,108.545H59.449c1.295,6.23,3.997,11.952,7.754,16.819h7.543V108.545L74.747,108.545z
		 M108.435,91.677v-16.87h-16.87v16.87H108.435L108.435,91.677z"/>
</g>
</svg>
